<?xml version="1.0" standalone="no"?>
<!DOCTYPE svg PUBLIC "-//W3C//DTD SVG 1.1//EN" "http://www.w3.org/Graphics/SVG/1.1/DTD/svg11.dtd" >
<svg xmlns="http://www.w3.org/2000/svg">
<metadata>
This is a custom SVG webfont generated by Font Squirrel.
</metadata>
<defs>
<font id="webfontnHD7cN0U" horiz-adv-x="2048" >
<font-face units-per-em="4096" ascent="2957" descent="-1139" />
<missing-glyph horiz-adv-x="1138" />
<glyph unicode=" "  horiz-adv-x="1138" />
<glyph unicode="&#x09;" horiz-adv-x="1138" />
<glyph unicode="&#xa0;" horiz-adv-x="1138" />
<glyph unicode="!" horiz-adv-x="1138" d="M868 2957l-114 -1958h-369l-115 1958h598zM860 0h-581v582h581v-582z" />
<glyph unicode="&#x22;" horiz-adv-x="1363" d="M815 1851v1106h451v-1106h-451zM98 1851v1106h451v-1106h-451z" />
<glyph unicode="#" horiz-adv-x="2277" d="M2073 1229v-385h-406l-119 -844h-393l115 844h-406l-119 -844h-393l115 844h-385v385h438l74 500h-385v385h434l119 843h393l-115 -843h406l119 843h393l-115 -843h352v-385h-401l-74 -500h353zM1397 1729h-406l-73 -500h405z" />
<glyph unicode="$" horiz-adv-x="2277" d="M78 520l352 320q234 -324 520 -381v844q-357 102 -588 321t-231 543q0 351 234 563q233 211 585 227v262h320v-262q455 -78 778 -434l-319 -307q-222 267 -459 291v-754q193 -68 334 -139q136 -69 268 -178q131 -109 199 -262q67 -152 67 -355q0 -361 -250 -586 q-251 -226 -618 -233v-467h-320v471q-208 0 -463 154q-252 152 -409 362zM950 1843v688q-148 -5 -250 -90t-102 -233q0 -127 102 -223q103 -97 250 -142zM1270 1208v-757q160 0 264 98t104 254q0 88 -26 149q-27 64 -90 113q-56 44 -111 76q-43 25 -141 67z" />
<glyph unicode="%" horiz-adv-x="3641" d="M877 2957q308 0 522 -217q215 -218 215 -520t-215 -520q-214 -217 -522 -217q-309 0 -523 217q-215 218 -215 520t215 520q214 217 523 217zM877 2556q-136 0 -236 -100t-100 -236q0 -135 100 -235q101 -101 236 -101q134 0 235 101q100 100 100 235q0 136 -100 236 t-235 100zM2765 1475q307 0 522 -218t215 -520t-215 -520q-214 -217 -522 -217t-522 217q-215 218 -215 520t215 520t522 218zM2765 1073q-136 0 -236 -100t-100 -236q0 -135 100 -235q101 -101 236 -101q134 0 235 101t101 235q0 135 -101 236q-100 100 -235 100zM807 -41 l1700 3039h348l-1700 -3039h-348z" />
<glyph unicode="&#x26;" horiz-adv-x="2732" d="M1122 2654q-119 0 -188 -90q-70 -91 -70 -229q0 -188 168 -467l76 67l86 76q26 24 70 74q48 54 65 90q22 46 37 92q18 55 18 113q0 107 -71 190q-72 84 -191 84zM2077 1487l454 -127q-174 -453 -352 -737q204 -143 410 -164v-500q-214 0 -379 64q-160 62 -367 239 q-312 -303 -741 -303q-439 0 -701 211t-262 608q0 288 127 473q129 188 373 346q-242 361 -242 664q0 360 217 549q216 188 541 188q300 0 498 -192t198 -475q0 -114 -36 -215q-38 -107 -80 -172q-43 -66 -140 -162q-90 -88 -143 -133l-170 -138q239 -320 528 -602 q216 386 267 578zM705 852q0 -205 122 -315q123 -111 299 -111q237 0 381 164q-303 266 -589 631q-213 -163 -213 -369z" />
<glyph unicode="'" horiz-adv-x="909" d="M229 1851v1106h451v-1106h-451z" />
<glyph unicode="(" horiz-adv-x="1363" d="M1245 -344h-483q-557 784 -557 1671t557 1671h483q-277 -386 -434 -784q-156 -396 -156 -887t156 -887q157 -398 434 -784z" />
<glyph unicode=")" horiz-adv-x="1363" d="M602 -344h-483q277 386 434 784q156 396 156 887t-156 887q-157 398 -434 784h483q557 -784 557 -1671t-557 -1671z" />
<glyph unicode="*" d="M819 2957h410l-119 -594l16 -20l545 278l107 -364l-598 -74l-9 -24l435 -426l-308 -234l-262 549h-24l-262 -549l-308 234l435 426l-9 24l-598 74l107 364l545 -278l16 20z" />
<glyph unicode="+" horiz-adv-x="2457" d="M979 1364v864h500v-864h864v-500h-864v-864h-500v864h-864v500h864z" />
<glyph unicode="," horiz-adv-x="1138" d="M315 -606l209 606h-245v582h581v-582l-258 -606h-287z" />
<glyph unicode="-" horiz-adv-x="1363" d="M1184 889h-1008v450h1008v-450z" />
<glyph unicode="." horiz-adv-x="1138" d="M860 0h-581v582h581v-582z" />
<glyph unicode="/" horiz-adv-x="1138" d="M1376 2998l-1114 -3039h-500l1115 3039h499z" />
<glyph unicode="0" horiz-adv-x="2277" d="M147 983v991q0 478 259 752q257 272 733 272t733 -272q258 -273 258 -752v-991q0 -479 -258 -752q-257 -272 -733 -272t-733 272q-259 274 -259 752zM688 1913v-869q0 -347 107 -483q107 -135 344 -135t344 135q106 134 106 483v869q0 349 -106 483q-107 135 -344 135 t-344 -135q-107 -136 -107 -483z" />
<glyph unicode="1" horiz-adv-x="2277" d="M963 0v2261h-455v324q94 20 147 36q89 27 117 37q48 17 96 49q64 43 72 48q27 18 64 59q36 40 51 55q11 11 51 66q38 52 49 63h324v-2998h-516z" />
<glyph unicode="2" horiz-adv-x="2277" d="M2028 0h-1864v479q891 846 1132 1135q236 283 236 512q0 185 -100 295t-293 110q-201 0 -312 -108q-110 -107 -110 -281v-106h-541v139q0 340 254 582q253 241 668 241q447 0 710 -223q265 -224 265 -637q0 -193 -82 -387q-83 -197 -232 -371q-158 -185 -293 -317 l-331 -318q-174 -162 -287 -278h1180v-467z" />
<glyph unicode="3" horiz-adv-x="2277" d="M139 868h541q0 -230 106 -336t332 -106q206 0 318 121t112 317q0 247 -143 353q-143 105 -455 110v467q287 0 408 88t121 293q0 159 -101 258q-99 98 -280 98q-151 0 -250 -96t-107 -248h-540q5 394 256 602q253 209 645 209q414 0 665 -211q252 -211 252 -592 q0 -200 -94 -378q-95 -180 -262 -265q426 -168 426 -712q0 -423 -272 -652t-691 -229q-486 0 -737 242q-250 241 -250 667z" />
<glyph unicode="4" horiz-adv-x="2277" d="M451 1196h847v1155h-8zM0 1253l1253 1704h562v-1761h413v-418h-413v-778h-517v778h-1298v475z" />
<glyph unicode="5" horiz-adv-x="2277" d="M143 848h541v-25q0 -183 104 -286q112 -111 318 -111q254 0 356 158q103 159 103 485q0 569 -430 569q-267 0 -435 -229h-446v1548h1708v-467h-1241v-614q253 180 536 180q452 0 650 -258t198 -741q0 -1098 -991 -1098q-265 0 -461 74q-194 73 -303 205 q-107 130 -157 282q-50 153 -50 328z" />
<glyph unicode="6" horiz-adv-x="2277" d="M688 1208v-164q0 -347 107 -483q107 -135 344 -135q210 0 317 143q109 145 109 402q0 235 -115 358q-114 121 -311 121q-185 0 -451 -242zM2052 2183h-541q-4 151 -112 250q-107 98 -260 98q-237 0 -344 -135q-107 -136 -107 -483v-275q304 230 635 230q373 0 578 -250 q204 -249 204 -627q0 -475 -239 -753q-240 -279 -727 -279q-476 0 -733 272q-259 274 -259 752v991q0 478 259 752q257 272 733 272q394 0 639 -211q246 -211 274 -604z" />
<glyph unicode="7" horiz-adv-x="2277" d="M123 2490v467h1868v-270l-799 -2687h-590l819 2490h-1298z" />
<glyph unicode="8" horiz-adv-x="2277" d="M1589 856q0 206 -123 330q-123 125 -327 125q-205 0 -328 -125q-123 -124 -123 -330q0 -430 451 -430q450 0 450 430zM1516 2150q0 159 -107 271q-106 110 -270 110q-165 0 -271 -110t-106 -271q0 -157 110 -264q111 -108 267 -108q155 0 266 108t111 264zM2130 840 q0 -425 -277 -654q-275 -227 -714 -227q-440 0 -715 227q-277 229 -277 654q0 544 431 712q-168 85 -263 265q-94 178 -94 378q0 393 256 598t662 205q405 0 661 -205t256 -598q0 -200 -94 -378q-95 -180 -262 -265q430 -168 430 -712z" />
<glyph unicode="9" horiz-adv-x="2277" d="M1589 1749v164q0 349 -106 483q-107 135 -344 135q-211 0 -318 -143q-108 -144 -108 -401q0 -237 114 -359q114 -121 312 -121q184 0 450 242zM225 774h541q4 -151 113 -250q107 -98 260 -98q237 0 344 135q106 134 106 483v275q-302 -229 -635 -229q-373 0 -577 249 q-205 250 -205 627q0 475 240 754q239 278 727 278q476 0 733 -272q258 -273 258 -752v-991q0 -479 -258 -752q-257 -272 -733 -272q-394 0 -639 211q-247 212 -275 604z" />
<glyph unicode=":" horiz-adv-x="1138" d="M860 0h-581v582h581v-582zM860 1229h-581v581h581v-581z" />
<glyph unicode=";" horiz-adv-x="1138" d="M315 -606l209 606h-245v582h581v-582l-258 -606h-287zM860 1229h-581v581h581v-581z" />
<glyph unicode="&#x3c;" horiz-adv-x="2457" d="M2343 442v-479l-2228 955v393l2228 954v-479l-1593 -672z" />
<glyph unicode="=" horiz-adv-x="2457" d="M2343 1864v-500h-2228v500h2228zM2343 864v-499h-2228v499h2228z" />
<glyph unicode="&#x3e;" horiz-adv-x="2457" d="M115 -37v479l1593 672l-1593 672v479l2228 -954v-393z" />
<glyph unicode="?" horiz-adv-x="1818" d="M512 2220l-471 131q78 303 295 475t528 172t539 -186q227 -185 227 -510q0 -197 -295 -573l-149 -199q-42 -58 -94 -162t-52 -180v-205h-450v401q0 95 262 465t262 494q0 103 -78 170q-77 67 -180 67q-123 0 -229 -112q-108 -114 -115 -248zM1106 0h-582v582h582v-582z " />
<glyph unicode="@" horiz-adv-x="3276" d="M1683 1851q-183 0 -311 -147q-127 -146 -127 -332q0 -151 86 -246q85 -94 230 -94q191 0 319 148q127 146 127 340q0 148 -90 239q-90 92 -234 92zM2122 2015l49 205h369l-205 -999q-29 -159 -29 -160q0 -78 61 -78q156 0 285 178q129 179 129 486q0 479 -301 743 q-302 264 -784 264q-508 0 -817 -332q-310 -333 -310 -847q0 -532 332 -852t860 -320q466 0 807 287h377q-214 -304 -526 -467q-314 -164 -690 -164q-657 0 -1117 432t-460 1084q0 642 454 1083q453 440 1102 440q566 0 991 -346q426 -346 426 -891q0 -254 -84 -467 q-84 -212 -207 -340q-121 -125 -270 -215q-147 -89 -268 -123q-120 -34 -207 -34q-91 0 -154 57q-62 57 -67 156l-8 4q-192 -217 -410 -217q-262 0 -459 215q-196 214 -196 506q0 385 235 675q236 291 604 291q324 0 488 -254z" />
<glyph unicode="A" horiz-adv-x="2277" d="M1139 2318l-279 -1196h561l-274 1196h-8zM598 0h-545l733 2957h725l713 -2957h-541l-143 623h-782z" />
<glyph unicode="B" horiz-adv-x="2277" d="M254 0v2957h795q459 0 706 -192q248 -192 248 -570q0 -393 -365 -614q243 -152 338 -307q97 -158 97 -422q0 -425 -265 -639q-264 -213 -727 -213h-827zM819 1319v-852h238q217 0 334 117q116 116 116 313q0 205 -131 313q-132 109 -360 109h-197zM819 2490v-704h197 q189 0 305 98q117 99 117 250q0 168 -99 262q-98 94 -295 94h-225z" />
<glyph unicode="C" horiz-adv-x="2277" d="M770 2081v-1204q0 -235 94 -326q95 -92 275 -92q179 0 274 92q94 91 94 326v196h566v-123q0 -991 -934 -991t-934 991v1057q0 991 934 991t934 -991v-8h-566v82q0 234 -94 325q-96 93 -274 93q-179 0 -275 -93q-94 -91 -94 -325z" />
<glyph unicode="D" horiz-adv-x="2277" d="M254 0v2957h786q501 0 758 -239q258 -240 275 -785v-909q-16 -544 -275 -784q-258 -240 -758 -240h-786zM819 2458v-1958h197q245 0 368 135t123 455v778q0 316 -114 452q-115 138 -377 138h-197z" />
<glyph unicode="E" d="M1843 0h-1589v2957h1548v-499h-983v-680h750v-500h-750v-778h1024v-500z" />
<glyph unicode="F" horiz-adv-x="1818" d="M819 0h-565v2957h1475v-499h-910v-680h713v-500h-713v-1278z" />
<glyph unicode="G" horiz-adv-x="2277" d="M1753 0l-86 246q-254 -287 -528 -287q-934 0 -934 991v1057q0 991 934 991q881 0 909 -1003h-565q0 504 -344 504q-179 0 -275 -93q-94 -91 -94 -325v-1204q0 -235 94 -326q95 -92 275 -92q161 0 252 110q92 112 92 299v181h-398v467h963v-1516h-295z" />
<glyph unicode="H" horiz-adv-x="2502" d="M852 0h-565v2957h565v-1179h799v1179h565v-2957h-565v1278h-799v-1278z" />
<glyph unicode="I" horiz-adv-x="1138" d="M852 0h-565v2957h565v-2957z" />
<glyph unicode="J" horiz-adv-x="1363" d="M512 2957h565v-2330q0 -303 -198 -486q-197 -182 -560 -182q-155 0 -278 12v500q17 0 70 -6t82 -6q188 0 253 59q66 60 66 223v2216z" />
<glyph unicode="K" horiz-adv-x="2277" d="M819 0h-565v2957h565v-1220h8l734 1220h618l-762 -1192l848 -1765h-635l-590 1241l-221 -336v-905z" />
<glyph unicode="L" horiz-adv-x="1818" d="M1729 0h-1475v2957h565v-2457h910v-500z" />
<glyph unicode="M" horiz-adv-x="3186" d="M770 0h-483v2957h790l512 -1941h8l512 1941h791v-2957h-483v2327h-9l-602 -2327h-426l-602 2327h-8v-2327z" />
<glyph unicode="N" horiz-adv-x="2502" d="M803 0h-516v2957h618l787 -1753h8v1753h516v-2957h-541l-864 1909h-8v-1909z" />
<glyph unicode="O" horiz-adv-x="2277" d="M205 950v1057q0 991 934 991t934 -991v-1057q0 -991 -934 -991t-934 991zM770 2081v-1204q0 -235 94 -326q95 -92 275 -92q179 0 274 92q94 91 94 326v1204q0 234 -94 325q-96 93 -274 93q-179 0 -275 -93q-94 -91 -94 -325z" />
<glyph unicode="P" horiz-adv-x="2277" d="M852 0h-565v2957h815q517 0 776 -229q260 -230 260 -655q0 -426 -260 -656q-259 -229 -776 -229h-250v-1188zM852 2490v-835h303q418 0 418 418q0 417 -418 417h-303z" />
<glyph unicode="Q" horiz-adv-x="2277" d="M2249 274v-491q-348 0 -594 291q-207 -115 -516 -115q-934 0 -934 991v1057q0 991 934 991t934 -991v-1057q0 -351 -119 -577q128 -95 295 -99zM1102 737v492q237 -33 397 -271h8v1123q0 234 -94 325q-96 93 -274 93q-179 0 -275 -93q-94 -91 -94 -325v-1204 q0 -235 94 -326q95 -92 275 -92q135 0 213 45q-135 192 -250 233z" />
<glyph unicode="R" horiz-adv-x="2277" d="M2187 0h-606l-491 1204h-271v-1204h-565v2957h819q501 0 752 -229q252 -230 252 -655q0 -586 -447 -754zM819 2490v-819h291q401 0 401 410q0 409 -401 409h-291z" />
<glyph unicode="S" horiz-adv-x="2277" d="M2011 2281l-508 -147q-69 208 -168 303q-98 94 -245 94t-230 -86q-82 -85 -82 -237q0 -118 129 -223q127 -104 316 -201q186 -96 372 -213q187 -118 316 -314q129 -197 129 -454q0 -386 -250 -615t-692 -229q-749 0 -967 832l557 118q45 -245 170 -364t268 -119 q152 0 250 94q99 94 99 258q0 131 -95 240q-95 108 -233 184l-303 172q-154 90 -303 193q-139 96 -234 254q-94 157 -94 350q0 389 229 608q230 219 660 219q365 0 598 -194q232 -194 311 -523z" />
<glyph unicode="T" d="M82 2957h1884v-499h-659v-2458h-566v2458h-659v499z" />
<glyph unicode="U" horiz-adv-x="2502" d="M287 2957h565v-2068q0 -430 397 -430q402 0 402 430v2068h565v-2072q0 -471 -256 -699q-255 -227 -711 -227t-708 227q-254 228 -254 699v2072z" />
<glyph unicode="V" horiz-adv-x="2277" d="M819 0l-758 2957h557l521 -2113h8l516 2113h553l-754 -2957h-643z" />
<glyph unicode="W" horiz-adv-x="3411" d="M713 0l-619 2957h524l398 -1933h8l406 1933h544l410 -1933h8l393 1933h529l-648 -2957h-544l-414 2023h-8l-447 -2023h-540z" />
<glyph unicode="X" horiz-adv-x="2277" d="M713 2957l426 -884l426 884h606l-717 -1401l787 -1556h-611l-491 1044l-492 -1044h-610l794 1556l-725 1401h607z" />
<glyph unicode="Y" horiz-adv-x="2277" d="M651 2957l496 -1192l479 1192h602l-807 -1761v-1196h-565v1196l-807 1761h602z" />
<glyph unicode="Z" d="M250 2458v499h1638v-475l-1118 -1982h1143v-500h-1778v479l1118 1979h-1003z" />
<glyph unicode="[" horiz-adv-x="1363" d="M1163 -303h-958v3260h958v-245h-508v-2769h508v-246z" />
<glyph unicode="\" horiz-adv-x="1138" d="M877 -41l-1115 3039h500l1114 -3039h-499z" />
<glyph unicode="]" horiz-adv-x="1363" d="M201 2957h958v-3260h-958v246h508v2769h-508v245z" />
<glyph unicode="^" horiz-adv-x="2457" d="M692 1311h-479l795 1646h442l795 -1646h-488l-528 1155z" />
<glyph unicode="_" d="M2048 -512h-2048v205h2048v-205z" />
<glyph unicode="`" horiz-adv-x="1138" d="M-98 3097h635l381 -598h-414z" />
<glyph unicode="a" d="M713 1577h-516q28 352 274 532q214 160 553 160q758 0 758 -676v-1413q0 -83 28 -180h-516q-8 35 -18 104q-7 49 -19 113q-258 -258 -614 -258q-242 0 -377 135t-135 398q0 188 82 333q83 147 250 254q172 111 350 185q165 69 453 157v164q0 135 -74 201q-72 65 -193 65 q-119 0 -202 -77q-84 -78 -84 -197zM1266 549v541q-619 -213 -619 -512q0 -110 62 -172t168 -62q184 0 389 205z" />
<glyph unicode="b" d="M762 1724v-1220q148 -160 311 -160q119 0 187 113q67 112 67 420v475q0 308 -67 420t-187 112q-163 0 -311 -160zM721 0h-475v2957h516v-934q336 246 516 246q295 0 430 -221q135 -220 135 -664v-540q0 -444 -135 -664q-135 -221 -430 -221q-160 0 -317 96 q-159 97 -232 215h-8v-270z" />
<glyph unicode="c" d="M1839 1458h-512v98q0 128 -82 195q-83 68 -221 68t-221 -68q-82 -67 -82 -195v-884q0 -128 82 -195t221 -67t221 67t82 195v139h516v-8q0 -844 -819 -844t-819 844v622q0 844 819 844q803 0 815 -811z" />
<glyph unicode="d" d="M1286 504v1220q-148 160 -311 160q-120 0 -187 -112t-67 -420v-475q0 -308 67 -420q68 -113 187 -113q163 0 311 160zM1802 0h-475v270h-8q-73 -118 -232 -215q-157 -96 -317 -96q-295 0 -430 221q-135 220 -135 664v540q0 444 135 664q135 221 430 221q180 0 516 -246 v934h516v-2957z" />
<glyph unicode="e" d="M1843 991h-1122v-295q0 -160 84 -239q85 -80 219 -80q155 0 229 86t74 225h516q-21 -348 -227 -538q-208 -191 -592 -191q-372 0 -596 213q-223 213 -223 578v729q0 364 223 577q224 213 596 213q360 0 590 -209q229 -208 229 -549v-520zM721 1409h606v123 q0 319 -303 319t-303 -319v-123z" />
<glyph unicode="f" horiz-adv-x="1138" d="M1106 2974v-426h-148q-176 0 -176 -189v-229h308v-418h-308v-1712h-516v1712h-233v418h233v213q0 368 146 512q144 143 448 143q74 0 246 -24z" />
<glyph unicode="g" d="M1196 1421q0 430 -270 430q-148 0 -209 -110q-62 -112 -62 -373q0 -418 246 -418q173 0 234 94t61 377zM1958 2269v-450q-11 4 -47 12q-46 10 -66 14q-30 6 -47 6q-10 0 -176 -49q66 -296 66 -393q0 -877 -746 -877q-121 0 -213 29q-8 -13 -35 -37q-24 -21 -41 -47 q-14 -21 -14 -47q0 -66 96 -90q92 -23 224 -23h16h24q137 0 287 -16q164 -18 311 -59q143 -40 240 -160q96 -118 96 -307q0 -279 -264 -420t-727 -141q-406 0 -629 108t-223 297q0 29 6 53q6 26 21 49q22 40 26 46q10 18 37 43l39 34q25 20 47 35l45 31q2 1 10 6l18 11.5 l21 13.5q38 23 41 26q-213 127 -213 316q0 80 58 159q58 80 112 119q59 43 142 94q-183 118 -260 303q-76 183 -76 472q0 839 762 839q164 0 323 -69q157 -68 258 -189q205 258 451 258zM1253 -147l-565 49q-106 -106 -106 -181q0 -163 471 -163q389 0 389 176q0 57 -39 84 q-40 28 -150 35z" />
<glyph unicode="h" d="M762 0h-516v2957h516v-983q311 295 561 295q241 0 360 -135q119 -136 119 -438v-1696h-516v1638q0 246 -188 246q-111 0 -336 -201v-1683z" />
<glyph unicode="i" horiz-adv-x="1138" d="M311 2228h516v-2228h-516v2228zM827 2613h-516v467h516v-467z" />
<glyph unicode="j" horiz-adv-x="1138" d="M311 2228h516v-2408q0 -303 -176 -455q-175 -151 -454 -151q-103 0 -189 12v455q166 0 234 49q69 50 69 155v2343zM827 2613h-516v467h516v-467z" />
<glyph unicode="k" d="M786 0h-516v2957h516v-1593h9l548 864h578l-512 -753l557 -1475h-545l-377 1044l-258 -364v-680z" />
<glyph unicode="l" horiz-adv-x="1138" d="M311 0v2957h516v-2957h-516z" />
<glyph unicode="m" horiz-adv-x="2957" d="M246 0v2228h499v-254q109 96 175 148q71 55 172 100q106 47 206 47q292 0 394 -336q149 165 272 250q125 86 277 86q471 0 471 -590v-1679h-517v1696q0 188 -135 188q-71 0 -170 -65t-153 -136v-1683h-516v1696q0 188 -140 188q-77 0 -172 -63q-92 -62 -147 -138v-1683 h-516z" />
<glyph unicode="n" d="M762 0h-516v2228h499v-254q161 138 299 219q130 76 279 76q241 0 360 -135q119 -136 119 -438v-1696h-516v1638q0 246 -188 246q-111 0 -336 -201v-1683z" />
<glyph unicode="o" d="M205 803v622q0 844 819 844t819 -844v-622q0 -844 -819 -844t-819 844zM721 1556v-884q0 -128 82 -195t221 -67t221 67t82 195v884q0 128 -82 195q-83 68 -221 68t-221 -68q-82 -67 -82 -195z" />
<glyph unicode="p" d="M762 1724v-1220q148 -160 311 -160q119 0 187 113q67 112 67 420v475q0 308 -67 420t-187 112q-163 0 -311 -160zM246 2228h475v-270h8q73 118 232 215q157 96 317 96q295 0 430 -221q135 -220 135 -664v-540q0 -444 -135 -664q-135 -221 -430 -221q-180 0 -516 246v-991 h-516v3014z" />
<glyph unicode="q" d="M1286 504v1220q-148 160 -311 160q-120 0 -187 -112t-67 -420v-475q0 -308 67 -420q68 -113 187 -113q163 0 311 160zM1327 2228h475v-3014h-516v991q-336 -246 -516 -246q-295 0 -430 221q-135 220 -135 664v540q0 444 135 664q135 221 430 221q160 0 317 -96 q159 -97 232 -215h8v270z" />
<glyph unicode="r" horiz-adv-x="1363" d="M762 0h-516v2228h504v-295h8q180 336 532 336v-557q-201 57 -274 57q-120 0 -187 -73t-67 -172v-1524z" />
<glyph unicode="s" horiz-adv-x="1818" d="M1655 1712l-426 -164q-102 303 -357 303q-89 0 -149 -57q-59 -56 -59 -143q0 -95 104 -172q107 -79 252 -146q162 -75 295 -149q148 -83 252 -223t104 -326q0 -325 -205 -500q-206 -176 -536 -176q-275 0 -471 127q-197 128 -369 508l463 127q74 -344 377 -344 q117 0 184 53q66 52 66 143q0 115 -105 201q-109 89 -252 150q-152 65 -295 141q-147 78 -252 225q-104 146 -104 357q0 298 205 460t500 162q284 0 481 -149q198 -150 297 -408z" />
<glyph unicode="t" horiz-adv-x="1138" d="M229 1712h-204v418h204v606h516v-606h332v-418h-332v-1139q0 -163 234 -163q73 0 102 4v-434q-123 -21 -295 -21q-557 0 -557 442v1311z" />
<glyph unicode="u" d="M1286 2228h516v-2228h-499v254q-161 -138 -299 -219q-130 -76 -279 -76q-241 0 -360 135q-119 136 -119 438v1696h516v-1638q0 -246 188 -246q111 0 336 201v1683z" />
<glyph unicode="v" horiz-adv-x="1818" d="M565 2228l340 -1433h8l340 1433h516l-606 -2228h-508l-606 2228h516z" />
<glyph unicode="w" horiz-adv-x="2732" d="M586 0l-533 2228h484l299 -1392h8l299 1392h442l316 -1392h8l282 1392h484l-525 -2228h-483l-315 1393h-9l-274 -1393h-483z" />
<glyph unicode="x" horiz-adv-x="1818" d="M635 1147l-565 1081h548l291 -639l299 639h549l-565 -1085l602 -1143h-549l-336 721l-336 -721h-548z" />
<glyph unicode="y" horiz-adv-x="1818" d="M131 -778v450q53 -8 152 -8q156 0 264 105t108 190q0 141 -94 471l-516 1798h524l349 -1474h8l323 1474h525l-594 -2220q-118 -453 -310 -624q-191 -170 -575 -170q-42 0 -164 8z" />
<glyph unicode="z" horiz-adv-x="1818" d="M209 1778v450h1483v-442l-947 -1335h947v-451h-1565v442l930 1336h-848z" />
<glyph unicode="{" horiz-adv-x="1363" d="M1069 2998v-245h-127q-111 0 -164 -58t-53 -192v-795q0 -320 -324 -373v-8q324 -53 324 -373v-802q0 -135 53 -193q52 -57 164 -57h127v-246h-324q-189 0 -329 127q-142 128 -142 360v807q0 258 -290 258v246q290 0 290 258v799q0 232 142 360q140 127 329 127h324z" />
<glyph unicode="|" horiz-adv-x="909" d="M205 -41v3039h500v-3039h-500z" />
<glyph unicode="}" horiz-adv-x="1363" d="M295 -344v246h127q112 0 164 57q53 58 53 193v794q0 320 324 373v8q-324 53 -324 373v803q0 134 -53 192t-164 58h-127v245h323q190 0 330 -127q142 -128 142 -360v-807q0 -258 290 -258v-246q-290 0 -290 -258v-799q0 -232 -142 -360q-140 -127 -330 -127h-323z" />
<glyph unicode="~" horiz-adv-x="2457" d="M2089 1511l156 -401q-89 -123 -142 -184q-62 -71 -170 -131q-112 -62 -237 -62q-175 0 -455 152q-295 147 -520 147q-204 0 -348 -315l-160 393q201 381 553 381q160 0 502 -150q340 -149 456 -149q75 0 146 55q69 53 110 107q48 62 109 157z" />
<glyph unicode="&#xa1;" horiz-adv-x="1138" d="M868 -729h-598l115 1958h369zM279 2228h581v-581h-581v581z" />
<glyph unicode="&#xa2;" horiz-adv-x="2277" d="M791 553l315 1266h-8q-336 0 -336 -263v-884q0 -66 29 -119zM1962 1458h-512v98q0 98 -66 164l-335 -1306q15 -4 49 -4q352 0 352 262v139h516v-8q0 -433 -219 -639q-218 -205 -649 -205q-34 0 -140 8l-147 -540h-365l172 630q-372 201 -372 746v622q0 844 852 844 q84 0 127 -8l139 508h365l-160 -590q388 -163 393 -721z" />
<glyph unicode="&#xa3;" horiz-adv-x="2277" d="M459 1303h-393v360h340q-62 334 -62 537q0 380 240 589q241 209 596 209q484 0 718 -227q236 -228 236 -649h-516q-17 209 -105 317q-89 109 -284 109q-160 0 -252 -101t-92 -268q0 -166 61 -516h541v-360h-492q0 -136 -26 -353q-27 -227 -76 -344q279 -180 508 -180 q146 0 213 115q66 114 78 352h491q0 -196 -31 -354q-31 -157 -106 -291q-77 -137 -229 -213t-375 -76q-215 0 -359 49q-147 50 -411 217q-169 -148 -289 -207q-119 -59 -289 -59v500q186 5 281 186q96 183 96 477q0 82 -12 181z" />
<glyph unicode="&#xa4;" horiz-adv-x="2277" d="M2200 655l-238 -237l-233 237q-207 -200 -590 -200t-590 200l-234 -237l-237 237l229 230q-184 220 -184 594t184 594l-229 229l237 238l234 -238q209 201 590 201t590 -201l233 238l238 -238l-230 -229q184 -220 184 -594t-184 -594zM1696 1479q0 257 -152 432 q-152 174 -405 174q-255 0 -406 -174q-151 -173 -151 -432t151 -432q152 -175 406 -175q253 0 405 175t152 432z" />
<glyph unicode="&#xa5;" horiz-adv-x="2277" d="M2044 1851v-360h-516l-131 -295h647v-360h-664v-836h-483v836h-664v360h648l-131 295h-517v360h353l-512 1106h499l574 -1319l557 1319h500l-512 -1106h352z" />
<glyph unicode="&#xa6;" horiz-adv-x="909" d="M205 -41v1163h500v-1163h-500zM205 1835v1163h500v-1163h-500z" />
<glyph unicode="&#xa7;" d="M1647 2671l-279 -222q-172 205 -336 205q-82 0 -137 -49t-55 -123q0 -103 155 -268q154 -164 342 -322q189 -158 342 -366q156 -212 156 -400q0 -192 -123 -311t-323 -156q213 -225 213 -479q0 -246 -172 -385t-418 -139q-238 0 -371 84q-132 83 -289 264l279 217 q46 -96 143 -158q99 -63 225 -63q86 0 148 53q61 52 61 144q0 115 -155 292q-154 176 -342 340q-185 161 -342 359q-156 196 -156 344q0 256 109 379q106 120 317 153q-193 231 -193 459q0 196 158 336q157 139 391 139q389 0 652 -327zM1442 1110q0 52 -53 125 q-47 65 -222 252q-282 307 -401 307q-63 0 -109 -43q-47 -44 -51 -109q0 -122 254 -385q312 -327 422 -327q74 0 117 51q43 50 43 129z" />
<glyph unicode="&#xa8;" horiz-adv-x="1138" d="M-66 2998h492v-467h-492v467zM713 2998h491v-467h-491v467z" />
<glyph unicode="&#xa9;" horiz-adv-x="3276" d="M1638 -41q-642 0 -1106 416q-462 414 -462 1104t462 1104q463 415 1106 415t1106 -415t463 -1104t-463 -1104q-464 -416 -1106 -416zM2740 1479q0 508 -319 833q-320 326 -783 326q-466 0 -784 -326q-317 -324 -317 -833q0 -510 317 -834q318 -326 784 -326 q463 0 783 326q319 325 319 834zM2064 1249h369q-50 -305 -254 -473q-206 -170 -479 -170q-381 0 -615 252q-233 251 -233 633q0 391 227 637q228 248 613 248q282 0 479 -162q196 -162 246 -461h-353q-52 262 -372 262q-198 0 -306 -137q-108 -136 -108 -379 q0 -229 117 -381q117 -151 305 -151q336 0 364 282z" />
<glyph unicode="&#xaa;" horiz-adv-x="1228" d="M434 2568h-368q16 225 180 336q139 94 372 94q496 0 496 -405v-848q0 -43 16 -107h-352q0 10 -20 131q-143 -155 -385 -155q-155 0 -244 80q-88 79 -88 239q0 214 182 338q188 128 522 228v90q0 123 -139 123q-73 0 -123 -41q-49 -40 -49 -103zM745 2007v238 q-88 -34 -165 -70q-58 -27 -115 -80q-55 -51 -55 -108q0 -103 114 -103q138 0 221 123z" />
<glyph unicode="&#xab;" horiz-adv-x="2277" d="M1581 459l-500 655l500 655h451l-500 -655l500 -655h-451zM745 459l-499 655l499 655h451l-500 -655l500 -655h-451z" />
<glyph unicode="&#xac;" horiz-adv-x="2457" d="M1843 365v999h-1728v500h2228v-1499h-500z" />
<glyph unicode="&#xad;" horiz-adv-x="1363" d="M1184 889h-1008v450h1008v-450z" />
<glyph unicode="&#xae;" horiz-adv-x="3276" d="M1380 1331v-684h-360v1667h627q345 0 514 -114q170 -114 170 -390q0 -414 -414 -442l385 -721h-397l-357 684h-168zM1380 2019v-393h316q152 0 205 47t53 174q0 97 -68 135q-67 37 -252 37h-254zM1638 -41q-642 0 -1106 416q-462 414 -462 1104t462 1104 q463 415 1106 415t1106 -415t463 -1104t-463 -1104q-464 -416 -1106 -416zM2740 1479q0 508 -319 833q-320 326 -783 326q-466 0 -784 -326q-317 -324 -317 -833q0 -510 317 -834q318 -326 784 -326q463 0 783 326q319 325 319 834z" />
<glyph unicode="&#xaf;" horiz-adv-x="1138" d="M1282 2621h-1425v304h1425v-304z" />
<glyph unicode="&#xb0;" horiz-adv-x="1638" d="M819 2056q147 0 242 103q94 101 94 254q0 152 -94 253q-95 103 -242 103q-146 0 -241 -103t-95 -253q0 -151 95 -254t241 -103zM819 1827q-250 0 -420 170t-170 416q0 245 170 415t420 170t420 -170t170 -415q0 -246 -170 -416t-420 -170z" />
<glyph unicode="&#xb1;" horiz-adv-x="2457" d="M979 1679v549h500v-549h864v-499h-864v-549h-500v549h-864v499h864zM115 0v500h2228v-500h-2228z" />
<glyph unicode="&#xb2;" horiz-adv-x="1363" d="M1274 1196h-1213v307q575 506 723 670q150 167 150 301q0 98 -60 160q-60 61 -178 61q-127 0 -192 -61q-66 -62 -66 -148v-65h-368v86q0 201 163 346t435 145q290 0 462 -133q173 -134 173 -383q0 -114 -50 -229q-51 -118 -143 -223q-101 -116 -178 -187 q-70 -65 -211 -186q-122 -104 -180 -158h733v-303z" />
<glyph unicode="&#xb3;" horiz-adv-x="1363" d="M41 1720h369q0 -131 63 -188t203 -57q123 0 194 67q72 68 72 178q0 143 -90 203q-88 59 -283 59v304q172 0 248 49t76 172q0 77 -64 133q-62 55 -165 55q-90 0 -150 -57q-58 -55 -63 -144h-369q5 251 172 381q159 123 414 123q266 0 430 -125t164 -354q0 -123 -60 -229 q-61 -109 -170 -160q279 -99 279 -426q0 -254 -178 -393q-179 -140 -449 -140q-318 0 -481 146q-162 145 -162 403z" />
<glyph unicode="&#xb4;" horiz-adv-x="1138" d="M602 3097h635l-602 -598h-414z" />
<glyph unicode="&#xb5;" d="M1286 2228h516v-2228h-499v254q-323 -278 -541 -295v-745h-516v3014h516v-1638q0 -246 188 -246q111 0 336 201v1683z" />
<glyph unicode="&#xb6;" horiz-adv-x="2277" d="M778 -344v1860q-344 0 -540 190q-197 191 -197 518q0 373 209 553q208 180 668 180h1318v-344h-278v-2957h-451v2957h-278v-2957h-451z" />
<glyph unicode="&#xb7;" horiz-adv-x="1138" d="M569 1425q136 0 224 -94t88 -217t-88 -217t-224 -94q-135 0 -223 94t-88 217t88 217t223 94z" />
<glyph unicode="&#xb8;" horiz-adv-x="1138" d="M8 -831l78 172q212 -70 307 -70q91 0 160 39q70 40 70 121q0 64 -50 108q-49 43 -118 43q-62 0 -185 -33l-86 82l242 369h217l-172 -250l8 -8q46 29 127 29q147 0 258 -90t111 -230q0 -193 -158 -289q-157 -96 -362 -96q-191 0 -447 103z" />
<glyph unicode="&#xb9;" horiz-adv-x="1363" d="M586 1196v1352h-275v221q124 24 199 61q78 38 111 70q35 34 79 98h254v-1802h-368z" />
<glyph unicode="&#xba;" horiz-adv-x="1228" d="M82 2122v372q0 504 532 504q533 0 533 -504v-372q0 -508 -533 -508q-532 0 -532 508zM451 2540v-467q0 -156 163 -156q164 0 164 156v467q0 155 -164 155q-86 0 -127 -39q-36 -35 -36 -101v-15z" />
<glyph unicode="&#xbb;" horiz-adv-x="2277" d="M1196 1114l-500 -655h-450l499 655l-499 655h450zM2032 1114l-500 -655h-451l500 655l-500 655h451z" />
<glyph unicode="&#xbc;" horiz-adv-x="3416" d="M2212 754h418v536h-9zM1819 754l815 1020h364v-1020h271v-287h-271v-467h-368v467h-811v287zM602 1196v1352h-274v221q122 24 198 61q78 38 111 70q38 36 80 98h254v-1802h-369zM627 -41l1659 3039h393l-1659 -3039h-393z" />
<glyph unicode="&#xbd;" horiz-adv-x="3416" d="M602 1196v1352h-274v221q122 24 198 61q78 38 111 70q38 36 80 98h254v-1802h-369zM3240 0h-1212v307q570 502 722 670q150 167 150 301q0 100 -59 160q-60 61 -179 61q-127 0 -192 -61q-66 -62 -66 -148v-65h-368v86q0 200 164 346q163 145 434 145q291 0 463 -133 t172 -383q0 -114 -50 -229q-51 -118 -143 -223q-101 -116 -178 -187q-70 -65 -211 -186q-122 -104 -180 -158h733v-303zM553 -41l1659 3039h393l-1659 -3039h-393z" />
<glyph unicode="&#xbe;" horiz-adv-x="3416" d="M2212 754h418v536h-9zM1819 754l815 1020h364v-1020h271v-287h-271v-467h-368v467h-811v287zM147 1720h369q0 -130 64 -188q63 -57 202 -57q124 0 195 67q72 68 72 178q0 142 -91 203q-88 59 -282 59v304q172 0 248 49q75 49 75 172q0 77 -63 133q-62 55 -166 55 q-89 0 -149 -57q-59 -56 -64 -144h-369q5 251 172 381q159 123 414 123q266 0 430 -125t164 -354q0 -124 -59 -229q-61 -109 -170 -160q278 -99 278 -426q0 -254 -178 -393q-179 -140 -448 -140q-319 0 -482 146q-162 145 -162 403zM709 -41l1658 3039h394l-1659 -3039h-393 z" />
<glyph unicode="&#xbf;" horiz-adv-x="1818" d="M1307 8l471 -131q-78 -303 -295 -475t-529 -172q-310 0 -538 186t-228 510q0 86 50 195t100 184q52 78 145 199l150 194q46 62 96 164q49 99 49 178v205h451v-401q0 -95 -262 -465t-262 -494q0 -103 77 -170t181 -67q123 0 229 112q108 114 115 248zM713 2228h581v-581 h-581v581z" />
<glyph unicode="&#xc0;" horiz-adv-x="2277" d="M1139 2318l-279 -1196h561l-274 1196h-8zM598 0h-545l733 2957h725l713 -2957h-541l-143 623h-782zM471 3723h635l381 -598h-414z" />
<glyph unicode="&#xc1;" horiz-adv-x="2277" d="M1139 2318l-279 -1196h561l-274 1196h-8zM598 0h-545l733 2957h725l713 -2957h-541l-143 623h-782zM1171 3723h635l-602 -598h-413z" />
<glyph unicode="&#xc2;" horiz-adv-x="2277" d="M1139 2318l-279 -1196h561l-274 1196h-8zM598 0h-545l733 2957h725l713 -2957h-541l-143 623h-782zM881 3723h516l467 -598h-463l-262 336l-262 -336h-463z" />
<glyph unicode="&#xc3;" horiz-adv-x="2277" d="M1139 2318l-279 -1196h561l-274 1196h-8zM598 0h-545l733 2957h725l713 -2957h-541l-143 623h-782zM1622 3674h266q-102 -496 -454 -496q-115 0 -316 72t-287 72q-147 0 -184 -172h-258q33 217 150 358q118 142 321 142q121 0 318 -76t252 -76q74 0 124 49q52 50 68 127z " />
<glyph unicode="&#xc4;" horiz-adv-x="2277" d="M1139 2318l-279 -1196h561l-274 1196h-8zM598 0h-545l733 2957h725l713 -2957h-541l-143 623h-782zM504 3625h491v-467h-491v467zM1282 3625h492v-467h-492v467z" />
<glyph unicode="&#xc5;" horiz-adv-x="2277" d="M1139 2318l-279 -1196h561l-274 1196h-8zM598 0h-545l733 2957h725l713 -2957h-541l-143 623h-782zM1135 3101q-181 0 -308 129q-127 128 -127 309t127 309q127 129 308 129q180 0 311 -131t131 -307q0 -180 -131 -309q-130 -129 -311 -129zM1135 3756q-91 0 -152 -63 q-61 -62 -61 -154q0 -95 61 -156t152 -61q89 0 155 63t66 154t-66 154t-155 63z" />
<glyph unicode="&#xc6;" horiz-adv-x="4096" d="M1909 2507l-639 -1286h712v1286h-73zM664 0h-607l1516 2957h2179v-499h-1204v-680h905v-500h-905v-778h1253v-500h-1819v721h-966z" />
<glyph unicode="&#xc7;" horiz-adv-x="2277" d="M770 2081v-1204q0 -235 94 -326q95 -92 275 -92q179 0 274 92q94 91 94 326v196h566v-123q0 -963 -889 -991l-144 -209l9 -8q41 29 127 29q147 0 258 -90q110 -89 110 -230q0 -193 -158 -289t-362 -96q-185 0 -446 103l77 172q212 -70 308 -70q90 0 159 39q70 40 70 121 q0 65 -49 108t-119 43q-61 0 -184 -33l-86 82l221 336q-770 83 -770 983v1057q0 991 934 991t934 -991v-8h-566v82q0 234 -94 325q-96 93 -274 93q-179 0 -275 -93q-94 -91 -94 -325z" />
<glyph unicode="&#xc8;" d="M1843 0h-1589v2957h1548v-499h-983v-680h750v-500h-750v-778h1024v-500zM356 3723h635l381 -598h-414z" />
<glyph unicode="&#xc9;" d="M1843 0h-1589v2957h1548v-499h-983v-680h750v-500h-750v-778h1024v-500zM1057 3723h635l-602 -598h-414z" />
<glyph unicode="&#xca;" d="M1843 0h-1589v2957h1548v-499h-983v-680h750v-500h-750v-778h1024v-500zM766 3723h516l467 -598h-463l-262 336l-262 -336h-463z" />
<glyph unicode="&#xcb;" d="M1843 0h-1589v2957h1548v-499h-983v-680h750v-500h-750v-778h1024v-500zM389 3625h492v-467h-492v467zM1167 3625h492v-467h-492v467z" />
<glyph unicode="&#xcc;" horiz-adv-x="1138" d="M852 0h-565v2957h565v-2957zM-98 3723h635l381 -598h-414z" />
<glyph unicode="&#xcd;" horiz-adv-x="1138" d="M852 0h-565v2957h565v-2957zM602 3723h635l-602 -598h-414z" />
<glyph unicode="&#xce;" horiz-adv-x="1138" d="M852 0h-565v2957h565v-2957zM311 3723h516l467 -598h-463l-262 336l-262 -336h-463z" />
<glyph unicode="&#xcf;" horiz-adv-x="1138" d="M852 0h-565v2957h565v-2957zM-66 3625h492v-467h-492v467zM713 3625h491v-467h-491v467z" />
<glyph unicode="&#xd0;" horiz-adv-x="2277" d="M33 1278v500h221v1179h786q501 0 758 -239q258 -240 275 -785v-909q-16 -544 -275 -784q-258 -240 -758 -240h-786v1278h-221zM1180 1778v-500h-361v-778h197q245 0 368 135t123 455v778q0 316 -114 452q-115 138 -377 138h-197v-680h361z" />
<glyph unicode="&#xd1;" horiz-adv-x="2502" d="M803 0h-516v2957h618l787 -1753h8v1753h516v-2957h-541l-864 1909h-8v-1909zM1737 3674h266q-102 -496 -455 -496q-114 0 -315 72t-287 72q-147 0 -184 -172h-258q33 218 149 358q118 142 322 142q120 0 317 -76t252 -76q75 0 125 49q52 50 68 127z" />
<glyph unicode="&#xd2;" horiz-adv-x="2277" d="M205 950v1057q0 991 934 991t934 -991v-1057q0 -991 -934 -991t-934 991zM770 2081v-1204q0 -235 94 -326q95 -92 275 -92q179 0 274 92q94 91 94 326v1204q0 234 -94 325q-96 93 -274 93q-179 0 -275 -93q-94 -91 -94 -325zM471 3723h635l381 -598h-414z" />
<glyph unicode="&#xd3;" horiz-adv-x="2277" d="M205 950v1057q0 991 934 991t934 -991v-1057q0 -991 -934 -991t-934 991zM770 2081v-1204q0 -235 94 -326q95 -92 275 -92q179 0 274 92q94 91 94 326v1204q0 234 -94 325q-96 93 -274 93q-179 0 -275 -93q-94 -91 -94 -325zM1171 3723h635l-602 -598h-413z" />
<glyph unicode="&#xd4;" horiz-adv-x="2277" d="M205 950v1057q0 991 934 991t934 -991v-1057q0 -991 -934 -991t-934 991zM770 2081v-1204q0 -235 94 -326q95 -92 275 -92q179 0 274 92q94 91 94 326v1204q0 234 -94 325q-96 93 -274 93q-179 0 -275 -93q-94 -91 -94 -325zM881 3723h516l467 -598h-463l-262 336 l-262 -336h-463z" />
<glyph unicode="&#xd5;" horiz-adv-x="2277" d="M205 950v1057q0 991 934 991t934 -991v-1057q0 -991 -934 -991t-934 991zM770 2081v-1204q0 -235 94 -326q95 -92 275 -92q179 0 274 92q94 91 94 326v1204q0 234 -94 325q-96 93 -274 93q-179 0 -275 -93q-94 -91 -94 -325zM1622 3674h266q-102 -496 -454 -496 q-115 0 -316 72t-287 72q-147 0 -184 -172h-258q33 217 150 358q118 142 321 142q121 0 318 -76t252 -76q74 0 124 49q52 50 68 127z" />
<glyph unicode="&#xd6;" horiz-adv-x="2277" d="M205 950v1057q0 991 934 991t934 -991v-1057q0 -991 -934 -991t-934 991zM770 2081v-1204q0 -235 94 -326q95 -92 275 -92q179 0 274 92q94 91 94 326v1204q0 234 -94 325q-96 93 -274 93q-179 0 -275 -93q-94 -91 -94 -325zM504 3625h491v-467h-491v467zM1282 3625h492 v-467h-492v467z" />
<glyph unicode="&#xd7;" horiz-adv-x="2457" d="M877 1118l-762 762l356 348l758 -758l762 758l352 -348l-762 -766l762 -762l-352 -352l-762 762l-758 -762l-356 352l762 762v4z" />
<glyph unicode="&#xd8;" horiz-adv-x="2277" d="M778 1073l664 1294q-83 132 -303 132q-179 0 -275 -93q-94 -91 -94 -325v-1008h8zM1499 1774l-631 -1225q78 -90 271 -90q179 0 274 92q94 91 94 326v897h-8zM1827 3154h426l-299 -574q119 -226 119 -573v-1057q0 -991 -934 -991q-300 0 -492 102l-196 -380h-426l331 638 q-151 233 -151 631v1057q0 991 934 991q323 0 540 -123z" />
<glyph unicode="&#xd9;" horiz-adv-x="2502" d="M287 2957h565v-2068q0 -430 397 -430q402 0 402 430v2068h565v-2072q0 -471 -256 -699q-255 -227 -711 -227t-708 227q-254 228 -254 699v2072zM586 3723h635l381 -598h-414z" />
<glyph unicode="&#xda;" horiz-adv-x="2502" d="M287 2957h565v-2068q0 -430 397 -430q402 0 402 430v2068h565v-2072q0 -471 -256 -699q-255 -227 -711 -227t-708 227q-254 228 -254 699v2072zM1286 3723h635l-602 -598h-414z" />
<glyph unicode="&#xdb;" horiz-adv-x="2502" d="M287 2957h565v-2068q0 -430 397 -430q402 0 402 430v2068h565v-2072q0 -471 -256 -699q-255 -227 -711 -227t-708 227q-254 228 -254 699v2072zM995 3723h516l467 -598h-462l-263 336l-262 -336h-463z" />
<glyph unicode="&#xdc;" horiz-adv-x="2502" d="M287 2957h565v-2068q0 -430 397 -430q402 0 402 430v2068h565v-2072q0 -471 -256 -699q-255 -227 -711 -227t-708 227q-254 228 -254 699v2072zM618 3625h492v-467h-492v467zM1397 3625h491v-467h-491v467z" />
<glyph unicode="&#xdd;" horiz-adv-x="2277" d="M651 2957l496 -1192l479 1192h602l-807 -1761v-1196h-565v1196l-807 1761h602zM1171 3723h635l-602 -598h-413z" />
<glyph unicode="&#xde;" horiz-adv-x="2277" d="M852 0h-565v2957h565v-540h250q516 0 776 -230t260 -655t-260 -655t-776 -230h-250v-647zM852 1950v-836h303q418 0 418 418t-418 418h-303z" />
<glyph unicode="&#xdf;" d="M762 0h-516v2142q0 392 174 604q174 211 600 211q352 0 543 -213q190 -212 190 -610q0 -158 -70 -307t-196 -217q216 -113 301 -310q84 -195 84 -514q0 -398 -168 -612q-168 -215 -438 -215q-161 0 -299 61v467q71 -36 163 -36q120 0 173 96q53 97 53 309q0 257 -80 385 q-79 127 -305 127v418q138 7 215 102q76 94 76 258q0 361 -271 361q-114 0 -172 -70q-57 -69 -57 -172v-2265z" />
<glyph unicode="&#xe0;" d="M713 1577h-516q28 352 274 532q214 160 553 160q758 0 758 -676v-1413q0 -83 28 -180h-516q-8 35 -18 104q-7 49 -19 113q-258 -258 -614 -258q-242 0 -377 135t-135 398q0 188 82 333q83 147 250 254q172 111 350 185q165 69 453 157v164q0 135 -74 201q-72 65 -193 65 q-119 0 -202 -77q-84 -78 -84 -197zM1266 549v541q-619 -213 -619 -512q0 -110 62 -172t168 -62q184 0 389 205zM356 3097h635l381 -598h-414z" />
<glyph unicode="&#xe1;" d="M713 1577h-516q28 352 274 532q214 160 553 160q758 0 758 -676v-1413q0 -83 28 -180h-516q-8 35 -18 104q-7 49 -19 113q-258 -258 -614 -258q-242 0 -377 135t-135 398q0 188 82 333q83 147 250 254q172 111 350 185q165 69 453 157v164q0 135 -74 201q-72 65 -193 65 q-119 0 -202 -77q-84 -78 -84 -197zM1266 549v541q-619 -213 -619 -512q0 -110 62 -172t168 -62q184 0 389 205zM1057 3097h635l-602 -598h-414z" />
<glyph unicode="&#xe2;" d="M713 1577h-516q28 352 274 532q214 160 553 160q758 0 758 -676v-1413q0 -83 28 -180h-516q-8 35 -18 104q-7 49 -19 113q-258 -258 -614 -258q-242 0 -377 135t-135 398q0 188 82 333q83 147 250 254q172 111 350 185q165 69 453 157v164q0 135 -74 201q-72 65 -193 65 q-119 0 -202 -77q-84 -78 -84 -197zM1266 549v541q-619 -213 -619 -512q0 -110 62 -172t168 -62q184 0 389 205zM766 3097h516l467 -598h-463l-262 335l-262 -335h-463z" />
<glyph unicode="&#xe3;" d="M713 1577h-516q28 352 274 532q214 160 553 160q758 0 758 -676v-1413q0 -83 28 -180h-516q-8 35 -18 104q-7 49 -19 113q-258 -258 -614 -258q-242 0 -377 135t-135 398q0 188 82 333q83 147 250 254q172 111 350 185q165 69 453 157v164q0 135 -74 201q-72 65 -193 65 q-119 0 -202 -77q-84 -78 -84 -197zM1266 549v541q-619 -213 -619 -512q0 -110 62 -172t168 -62q184 0 389 205zM1507 3047h267q-102 -495 -455 -495q-117 0 -315 71q-201 72 -287 72q-148 0 -185 -172h-258q33 218 150 359t321 141q121 0 318 -76t252 -76q75 0 125 49 q51 49 67 127z" />
<glyph unicode="&#xe4;" d="M713 1577h-516q28 352 274 532q214 160 553 160q758 0 758 -676v-1413q0 -83 28 -180h-516q-8 35 -18 104q-7 49 -19 113q-258 -258 -614 -258q-242 0 -377 135t-135 398q0 188 82 333q83 147 250 254q172 111 350 185q165 69 453 157v164q0 135 -74 201q-72 65 -193 65 q-119 0 -202 -77q-84 -78 -84 -197zM1266 549v541q-619 -213 -619 -512q0 -110 62 -172t168 -62q184 0 389 205zM389 2998h492v-467h-492v467zM1167 2998h492v-467h-492v467z" />
<glyph unicode="&#xe5;" d="M713 1577h-516q28 352 274 532q214 160 553 160q758 0 758 -676v-1413q0 -83 28 -180h-516q-8 35 -18 104q-7 49 -19 113q-258 -258 -614 -258q-242 0 -377 135t-135 398q0 188 82 333q83 147 250 254q172 111 350 185q165 69 453 157v164q0 135 -74 201q-72 65 -193 65 q-119 0 -202 -77q-84 -78 -84 -197zM1266 549v541q-619 -213 -619 -512q0 -110 62 -172t168 -62q184 0 389 205zM1020 2474q-180 0 -307 129q-127 128 -127 309q0 182 127 310q127 129 307 129q179 0 311 -132q131 -131 131 -307q0 -180 -131 -309t-311 -129zM1020 3129 q-90 0 -152 -63q-61 -62 -61 -154q0 -94 61 -155q62 -62 152 -62q89 0 156 64q65 62 65 153q0 92 -65 154q-66 63 -156 63z" />
<glyph unicode="&#xe6;" horiz-adv-x="3186" d="M1294 549v541q-589 -225 -589 -512q0 -111 61 -172q62 -62 168 -62q204 0 360 205zM2933 991h-1123v-295q0 -160 84 -239q85 -80 220 -80q155 0 229 86t74 225h516q-21 -347 -228 -538q-208 -191 -591 -191q-434 0 -676 287q-237 -183 -396 -234q-164 -53 -342 -53 q-241 0 -376 135q-136 136 -136 398q0 188 82 333q83 146 246 254q164 108 340 185q159 69 438 157v164q0 266 -237 266q-120 0 -203 -77q-84 -78 -84 -197h-516q24 344 248 518t514 174q389 0 590 -254q225 254 548 254q338 0 558 -211q221 -212 221 -547v-520zM1810 1409 h607v123q0 319 -303 319q-304 0 -304 -319v-123z" />
<glyph unicode="&#xe7;" d="M1839 1458h-512v98q0 128 -82 195q-83 68 -221 68t-221 -68q-82 -67 -82 -195v-884q0 -128 82 -195t221 -67t221 67t82 195v139h516v-8q0 -820 -774 -844l-143 -209l8 -8q41 29 127 29q147 0 258 -90t111 -230q0 -193 -158 -289t-363 -96q-185 0 -446 103l78 172 q212 -70 307 -70q91 0 160 39t69 121q0 65 -49 108t-119 43q-61 0 -184 -33l-86 82l221 336q-655 78 -655 836v622q0 844 819 844q803 0 815 -811z" />
<glyph unicode="&#xe8;" d="M1843 991h-1122v-295q0 -160 84 -239q85 -80 219 -80q155 0 229 86t74 225h516q-21 -348 -227 -538q-208 -191 -592 -191q-372 0 -596 213q-223 213 -223 578v729q0 364 223 577q224 213 596 213q360 0 590 -209q229 -208 229 -549v-520zM721 1409h606v123 q0 319 -303 319t-303 -319v-123zM356 3097h635l381 -598h-414z" />
<glyph unicode="&#xe9;" d="M1843 991h-1122v-295q0 -160 84 -239q85 -80 219 -80q155 0 229 86t74 225h516q-21 -348 -227 -538q-208 -191 -592 -191q-372 0 -596 213q-223 213 -223 578v729q0 364 223 577q224 213 596 213q360 0 590 -209q229 -208 229 -549v-520zM721 1409h606v123 q0 319 -303 319t-303 -319v-123zM1057 3097h635l-602 -598h-414z" />
<glyph unicode="&#xea;" d="M1843 991h-1122v-295q0 -160 84 -239q85 -80 219 -80q155 0 229 86t74 225h516q-21 -348 -227 -538q-208 -191 -592 -191q-372 0 -596 213q-223 213 -223 578v729q0 364 223 577q224 213 596 213q360 0 590 -209q229 -208 229 -549v-520zM721 1409h606v123 q0 319 -303 319t-303 -319v-123zM766 3097h516l467 -598h-463l-262 335l-262 -335h-463z" />
<glyph unicode="&#xeb;" d="M1843 991h-1122v-295q0 -160 84 -239q85 -80 219 -80q155 0 229 86t74 225h516q-21 -348 -227 -538q-208 -191 -592 -191q-372 0 -596 213q-223 213 -223 578v729q0 364 223 577q224 213 596 213q360 0 590 -209q229 -208 229 -549v-520zM721 1409h606v123 q0 319 -303 319t-303 -319v-123zM389 2998h492v-467h-492v467zM1167 2998h492v-467h-492v467z" />
<glyph unicode="&#xec;" horiz-adv-x="1138" d="M827 0h-516v2228h516v-2228zM-98 3097h635l381 -598h-414z" />
<glyph unicode="&#xed;" horiz-adv-x="1138" d="M827 0h-516v2228h516v-2228zM602 3097h635l-602 -598h-414z" />
<glyph unicode="&#xee;" horiz-adv-x="1138" d="M827 0h-516v2228h516v-2228zM311 3097h516l467 -598h-463l-262 335l-262 -335h-463z" />
<glyph unicode="&#xef;" horiz-adv-x="1138" d="M827 0h-516v2228h516v-2228zM-66 2998h492v-467h-492v467zM713 2998h491v-467h-491v467z" />
<glyph unicode="&#xf0;" d="M721 1434v-779q0 -119 82 -182q83 -63 221 -63t221 63q82 63 82 182v779q0 119 -82 182q-83 63 -221 63t-221 -63q-82 -63 -82 -182zM721 2900l483 57l131 -151l443 151l123 -303l-373 -131q315 -537 315 -1188v-585q0 -791 -819 -791t-819 791v585q0 795 819 795 q105 0 176 -16q-28 118 -102 262l-451 -156l-123 303l389 135q-16 22 -192 242z" />
<glyph unicode="&#xf1;" d="M762 0h-516v2228h499v-254q161 138 299 219q130 76 279 76q241 0 360 -135q119 -136 119 -438v-1696h-516v1638q0 246 -188 246q-111 0 -336 -201v-1683zM1507 3047h267q-102 -495 -455 -495q-117 0 -315 71q-201 72 -287 72q-148 0 -185 -172h-258q33 218 150 359 t321 141q121 0 318 -76t252 -76q75 0 125 49q51 49 67 127z" />
<glyph unicode="&#xf2;" d="M205 803v622q0 844 819 844t819 -844v-622q0 -844 -819 -844t-819 844zM721 1556v-884q0 -128 82 -195t221 -67t221 67t82 195v884q0 128 -82 195q-83 68 -221 68t-221 -68q-82 -67 -82 -195zM356 3097h635l381 -598h-414z" />
<glyph unicode="&#xf3;" d="M205 803v622q0 844 819 844t819 -844v-622q0 -844 -819 -844t-819 844zM721 1556v-884q0 -128 82 -195t221 -67t221 67t82 195v884q0 128 -82 195q-83 68 -221 68t-221 -68q-82 -67 -82 -195zM1057 3097h635l-602 -598h-414z" />
<glyph unicode="&#xf4;" d="M205 803v622q0 844 819 844t819 -844v-622q0 -844 -819 -844t-819 844zM721 1556v-884q0 -128 82 -195t221 -67t221 67t82 195v884q0 128 -82 195q-83 68 -221 68t-221 -68q-82 -67 -82 -195zM766 3097h516l467 -598h-463l-262 335l-262 -335h-463z" />
<glyph unicode="&#xf5;" d="M205 803v622q0 844 819 844t819 -844v-622q0 -844 -819 -844t-819 844zM721 1556v-884q0 -128 82 -195t221 -67t221 67t82 195v884q0 128 -82 195q-83 68 -221 68t-221 -68q-82 -67 -82 -195zM1507 3047h267q-102 -495 -455 -495q-117 0 -315 71q-201 72 -287 72 q-148 0 -185 -172h-258q33 218 150 359t321 141q121 0 318 -76t252 -76q75 0 125 49q51 49 67 127z" />
<glyph unicode="&#xf6;" d="M205 803v622q0 844 819 844t819 -844v-622q0 -844 -819 -844t-819 844zM721 1556v-884q0 -128 82 -195t221 -67t221 67t82 195v884q0 128 -82 195q-83 68 -221 68t-221 -68q-82 -67 -82 -195zM389 2998h492v-467h-492v467zM1167 2998h492v-467h-492v467z" />
<glyph unicode="&#xf7;" horiz-adv-x="2457" d="M2343 864h-2228v500h2228v-500zM836 2028q0 161 116 274q118 115 277 115q156 0 270 -117q115 -118 115 -272q0 -148 -117 -269t-264 -121q-163 0 -281 115q-116 113 -116 275zM836 201q0 161 116 274q118 115 277 115q155 0 270 -115t115 -274q0 -147 -117 -269 q-116 -120 -264 -120q-165 0 -281 116t-116 273z" />
<glyph unicode="&#xf8;" d="M729 856l483 913q-74 50 -188 50q-138 0 -221 -68q-82 -67 -82 -195v-700h8zM1319 1298l-455 -856q64 -32 160 -32q139 0 221 67t82 195v626h-8zM639 25l-258 -484h-365l361 672q-172 205 -172 590v622q0 844 819 844q246 0 418 -78l209 389h364l-319 -598 q147 -196 147 -557v-622q0 -844 -819 -844q-229 0 -385 66z" />
<glyph unicode="&#xf9;" d="M1286 2228h516v-2228h-499v254q-161 -138 -299 -219q-130 -76 -279 -76q-241 0 -360 135q-119 136 -119 438v1696h516v-1638q0 -246 188 -246q111 0 336 201v1683zM319 3097h635l381 -598h-413z" />
<glyph unicode="&#xfa;" d="M1286 2228h516v-2228h-499v254q-161 -138 -299 -219q-130 -76 -279 -76q-241 0 -360 135q-119 136 -119 438v1696h516v-1638q0 -246 188 -246q111 0 336 201v1683zM1020 3097h635l-602 -598h-414z" />
<glyph unicode="&#xfb;" d="M1286 2228h516v-2228h-499v254q-161 -138 -299 -219q-130 -76 -279 -76q-241 0 -360 135q-119 136 -119 438v1696h516v-1638q0 -246 188 -246q111 0 336 201v1683zM729 3097h516l467 -598h-463l-262 335l-262 -335h-463z" />
<glyph unicode="&#xfc;" d="M1286 2228h516v-2228h-499v254q-161 -138 -299 -219q-130 -76 -279 -76q-241 0 -360 135q-119 136 -119 438v1696h516v-1638q0 -246 188 -246q111 0 336 201v1683zM352 2998h492v-467h-492v467zM1130 2998h492v-467h-492v467z" />
<glyph unicode="&#xfd;" horiz-adv-x="1818" d="M131 -778v450q53 -8 152 -8q156 0 264 105t108 190q0 141 -94 471l-516 1798h524l349 -1474h8l323 1474h525l-594 -2220q-118 -453 -310 -624q-191 -170 -575 -170q-42 0 -164 8zM942 3097h635l-602 -598h-414z" />
<glyph unicode="&#xfe;" d="M762 1724v-1220q148 -160 311 -160q119 0 187 113q67 112 67 420v475q0 308 -67 420t-187 112q-163 0 -311 -160zM246 2957h508v-958h8q51 87 205 178q157 92 311 92q295 0 430 -221q135 -220 135 -664v-540q0 -444 -135 -664q-135 -221 -430 -221q-180 0 -516 246v-991 h-516v3743z" />
<glyph unicode="&#xff;" horiz-adv-x="1818" d="M131 -778v450q53 -8 152 -8q156 0 264 105t108 190q0 141 -94 471l-516 1798h524l349 -1474h8l323 1474h525l-594 -2220q-118 -453 -310 -624q-191 -170 -575 -170q-42 0 -164 8zM274 2998h492v-467h-492v467zM1053 2998h491v-467h-491v467z" />
<glyph unicode="&#x152;" horiz-adv-x="3866" d="M803 1786v-615q0 -401 129 -557q128 -155 452 -155q262 0 361 129q98 128 98 403v975q0 276 -98 404q-99 129 -361 129q-323 0 -452 -156t-129 -557zM2408 2458v-680h914v-500h-914v-778h1254v-500h-1692q-180 0 -344 -20q-258 -21 -377 -21q-463 0 -737 309 q-274 308 -274 850v783q0 540 313 819q312 278 850 278q256 0 463 -20q315 -21 422 -21h1339v-499h-1217z" />
<glyph unicode="&#x153;" horiz-adv-x="3186" d="M721 1556v-884q0 -128 82 -195t221 -67t221 67t82 195v884q0 128 -82 195q-83 68 -221 68t-221 -68q-82 -67 -82 -195zM2982 991h-1139v-295q0 -154 90 -237q89 -82 230 -82q155 0 229 86t74 225h516q-21 -348 -227 -538q-208 -191 -592 -191q-369 0 -574 295 q-196 -295 -590 -295q-794 0 -794 844v622q0 844 794 844q394 0 590 -295q205 295 598 295q346 0 570 -211q225 -212 225 -547v-520zM1843 1409h623v123q0 319 -303 319q-155 0 -238 -84q-82 -83 -82 -235v-123z" />
<glyph unicode="&#x178;" horiz-adv-x="2277" d="M651 2957l496 -1192l479 1192h602l-807 -1761v-1196h-565v1196l-807 1761h602zM504 3625h491v-467h-491v467zM1282 3625h492v-467h-492v467z" />
<glyph unicode="&#x2c6;" horiz-adv-x="1138" d="M311 3097h516l467 -598h-463l-262 335l-262 -335h-463z" />
<glyph unicode="&#x2dc;" horiz-adv-x="1138" d="M1053 3047h266q-102 -495 -455 -495q-117 0 -315 71q-201 72 -287 72q-147 0 -184 -172h-258q33 220 149 359q117 141 322 141q120 0 317 -76t252 -76q75 0 125 49q52 50 68 127z" />
<glyph unicode="&#x2000;" horiz-adv-x="1986" />
<glyph unicode="&#x2001;" horiz-adv-x="3977" />
<glyph unicode="&#x2002;" horiz-adv-x="1986" />
<glyph unicode="&#x2003;" horiz-adv-x="3977" />
<glyph unicode="&#x2004;" horiz-adv-x="1323" />
<glyph unicode="&#x2005;" horiz-adv-x="991" />
<glyph unicode="&#x2006;" horiz-adv-x="659" />
<glyph unicode="&#x2007;" horiz-adv-x="659" />
<glyph unicode="&#x2008;" horiz-adv-x="495" />
<glyph unicode="&#x2009;" horiz-adv-x="794" />
<glyph unicode="&#x200a;" horiz-adv-x="217" />
<glyph unicode="&#x2010;" horiz-adv-x="1363" d="M1184 889h-1008v450h1008v-450z" />
<glyph unicode="&#x2011;" horiz-adv-x="1363" d="M1184 889h-1008v450h1008v-450z" />
<glyph unicode="&#x2013;" d="M2048 942h-2048v344h2048v-344z" />
<glyph unicode="&#x2014;" horiz-adv-x="4096" d="M4096 942h-4096v344h4096v-344z" />
<glyph unicode="&#x2018;" horiz-adv-x="909" d="M709 2998l-209 -606h245v-582h-581v582l258 606h287z" />
<glyph unicode="&#x2019;" horiz-adv-x="909" d="M201 1769l209 607h-246v581h581v-581l-258 -607h-286z" />
<glyph unicode="&#x201a;" horiz-adv-x="909" d="M201 -606l209 606h-246v582h581v-582l-258 -606h-286z" />
<glyph unicode="&#x201c;" horiz-adv-x="1818" d="M709 2998l-209 -606h245v-582h-581v582l258 606h287zM1618 2998l-209 -606h246v-582h-582v582l258 606h287z" />
<glyph unicode="&#x201d;" horiz-adv-x="1818" d="M201 1769l209 607h-246v581h581v-581l-258 -607h-286zM1110 1769l209 607h-246v581h582v-581l-258 -607h-287z" />
<glyph unicode="&#x201e;" horiz-adv-x="1818" d="M201 -606l209 606h-246v582h581v-582l-258 -606h-286zM1110 -606l209 606h-246v582h582v-582l-258 -606h-287z" />
<glyph unicode="&#x2022;" d="M283 1479q0 307 215 522t522 215q306 0 524 -215q217 -214 217 -522t-217 -525t-524 -217q-308 0 -522 217q-215 218 -215 525z" />
<glyph unicode="&#x2026;" horiz-adv-x="4096" d="M975 0h-582v582h582v-582zM3703 0h-582v582h582v-582zM2339 0h-582v582h582v-582z" />
<glyph unicode="&#x202f;" horiz-adv-x="794" />
<glyph unicode="&#x2039;" horiz-adv-x="1363" d="M156 1114l499 655h451l-500 -655l500 -655h-451z" />
<glyph unicode="&#x203a;" horiz-adv-x="1363" d="M1208 1114l-499 -655h-451l500 655l-500 655h451z" />
<glyph unicode="&#x205f;" horiz-adv-x="991" />
<glyph unicode="&#x20ac;" horiz-adv-x="2277" d="M1827 1602h-877v-295h779l-115 -361h-664v-20q0 -238 123 -369t352 -131q393 0 643 168v-483q-274 -144 -684 -144q-424 0 -682 238q-256 237 -256 622v119h-323l115 361h208v295h-323l115 360h208v197q0 372 285 606q284 233 707 233q446 0 757 -245l-147 -463 q-265 241 -635 241q-213 0 -338 -135q-125 -136 -125 -323v-111h992z" />
<glyph unicode="&#x2122;" horiz-adv-x="4096" d="M2425 2957l385 -1024l381 1024h626v-1687h-434v1147h-8l-401 -1147h-332l-401 1147h-9v-1147h-434v1687h627zM1528 2957v-344h-471v-1343h-459v1343h-467v344h1397z" />
</font>
</defs>
</svg>
